<svg width="861" height="552" viewBox="0 0 861 552" fill="none" xmlns="http://www.w3.org/2000/svg">
<g clip-path="url(#clip0_1_2)">
<path d="M804 487.5H586.652C578.745 487.491 571.163 484.346 565.572 478.755C559.98 473.163 556.835 465.582 556.826 457.675V114.832C556.835 106.924 559.98 99.3429 565.572 93.7514C571.163 88.1599 578.744 85.0147 586.652 85.0058H804C811.908 85.0147 819.489 88.1599 825.081 93.7514C830.672 99.3429 833.817 106.924 833.826 114.832V457.675C833.817 465.582 830.672 473.163 825.081 478.755C819.489 484.346 811.908 487.491 804 487.5Z" fill="#E6E6E6"/>
<path d="M807.605 102.803H586.242C583.767 102.806 581.394 103.791 579.643 105.541C577.893 107.291 576.908 109.665 576.905 112.14V459.453C576.909 461.928 577.894 464.301 579.644 466.051C581.394 467.801 583.767 468.786 586.242 468.79H807.605C810.08 468.787 812.453 467.802 814.203 466.052C815.954 464.302 816.938 461.928 816.942 459.453V112.14C816.938 109.665 815.954 107.291 814.203 105.541C812.453 103.791 810.08 102.806 807.605 102.803Z" fill="white"/>
<path d="M591.965 85.0058C591.965 84.4008 592.206 83.8209 592.634 83.3932C593.061 82.9654 593.641 82.7248 594.246 82.7241H609.762C610.367 82.7241 610.948 82.9645 611.375 83.3924C611.803 83.8203 612.044 84.4006 612.044 85.0058C612.044 85.6109 611.803 86.1913 611.375 86.6192C610.948 87.0471 610.367 87.2875 609.762 87.2875H594.246C593.641 87.2867 593.061 87.0461 592.634 86.6184C592.206 86.1906 591.965 85.6107 591.965 85.0058Z" fill="#E6E6E6"/>
<path d="M617.52 85.0058C617.521 84.4008 617.761 83.8209 618.189 83.3932C618.617 82.9654 619.197 82.7248 619.802 82.7241H635.317C635.922 82.7241 636.503 82.9645 636.931 83.3924C637.359 83.8203 637.599 84.4006 637.599 85.0058C637.599 85.6109 637.359 86.1913 636.931 86.6192C636.503 87.0471 635.922 87.2875 635.317 87.2875H619.802C619.197 87.2868 618.617 87.0461 618.189 86.6184C617.761 86.1907 617.521 85.6107 617.52 85.0058Z" fill="#E6E6E6"/>
<path d="M770.851 85.0058C770.852 84.4008 771.092 83.8209 771.52 83.3932C771.948 82.9654 772.528 82.7248 773.133 82.7241H788.648C789.253 82.7241 789.834 82.9645 790.262 83.3924C790.69 83.8203 790.93 84.4006 790.93 85.0058C790.93 85.6109 790.69 86.1913 790.262 86.6192C789.834 87.0471 789.253 87.2875 788.648 87.2875H773.133C772.528 87.2868 771.948 87.0462 771.52 86.6184C771.092 86.1907 770.852 85.6107 770.851 85.0058Z" fill="#E6E6E6"/>
<path d="M727.599 461.634C727.599 464.035 727.553 466.426 727.444 468.79H586.242C583.767 468.786 581.394 467.801 579.644 466.051C577.894 464.301 576.909 461.928 576.905 459.453V284.637C618.954 291.431 657.211 312.973 684.823 345.405C712.436 377.837 727.599 419.04 727.599 461.634Z" fill="#F2F2F2"/>
<path d="M722.804 192.056H670.143C667.747 192.056 665.804 193.999 665.804 196.395V201.809C665.804 204.206 667.747 206.148 670.143 206.148H722.804C725.2 206.148 727.143 204.206 727.143 201.809V196.395C727.143 193.999 725.2 192.056 722.804 192.056Z" fill="#FF6F3A"/>
<path d="M756.273 220.241H636.674C634.277 220.241 632.335 222.183 632.335 224.58V229.994C632.335 232.391 634.277 234.333 636.674 234.333H756.273C758.669 234.333 760.612 232.391 760.612 229.994V224.58C760.612 222.183 758.669 220.241 756.273 220.241Z" fill="#E6E6E6"/>
<path d="M756.273 248.426H636.674C634.277 248.426 632.335 250.368 632.335 252.764V258.179C632.335 260.575 634.277 262.518 636.674 262.518H756.273C758.669 262.518 760.612 260.575 760.612 258.179V252.764C760.612 250.368 758.669 248.426 756.273 248.426Z" fill="#E6E6E6"/>
<path d="M735.793 445.054C735.108 445.085 734.429 444.905 733.849 444.538C733.269 444.171 732.816 443.634 732.551 443.001C732.286 442.368 732.222 441.668 732.368 440.997C732.514 440.327 732.863 439.717 733.367 439.251L733.596 438.339C733.566 438.266 733.536 438.193 733.505 438.12C732.814 436.488 731.657 435.097 730.178 434.121C728.699 433.145 726.965 432.628 725.193 432.635C723.421 432.641 721.69 433.171 720.219 434.158C718.747 435.145 717.6 436.545 716.921 438.182C714.209 444.714 710.755 451.258 709.905 458.166C709.531 461.219 709.689 464.314 710.372 467.313C704.001 453.416 700.693 438.312 700.672 423.024C700.67 419.188 700.884 415.355 701.31 411.542C701.663 408.417 702.152 405.314 702.778 402.233C706.192 385.516 713.523 369.848 724.169 356.515C729.322 353.703 733.489 349.38 736.109 344.128C737.058 342.239 737.729 340.224 738.1 338.143C737.519 338.22 736.928 338.267 736.347 338.305C736.166 338.315 735.975 338.325 735.794 338.334L735.726 338.337C735.087 338.366 734.454 338.209 733.902 337.886C733.35 337.563 732.903 337.088 732.615 336.517C732.327 335.946 732.211 335.304 732.279 334.668C732.348 334.032 732.599 333.43 733.002 332.933C733.253 332.624 733.504 332.316 733.755 332.007C734.136 331.531 734.527 331.064 734.908 330.587C734.952 330.542 734.993 330.494 735.032 330.444C735.47 329.901 735.909 329.368 736.347 328.824C735.547 327.583 734.471 326.542 733.203 325.785C728.81 323.212 722.75 324.994 719.577 328.967C716.394 332.941 715.794 338.515 716.899 343.479C717.986 347.704 719.784 351.712 722.216 355.333C721.978 355.638 721.73 355.933 721.492 356.238C717.137 361.838 713.342 367.85 710.16 374.19C710.934 367.088 710.01 359.903 707.466 353.227C704.887 347.006 700.053 341.766 695.796 336.387C690.682 329.926 680.197 332.746 679.296 340.936C679.287 341.015 679.279 341.094 679.271 341.174C679.903 341.53 680.522 341.909 681.128 342.309C681.888 342.818 682.478 343.544 682.819 344.393C683.16 345.242 683.236 346.174 683.038 347.068C682.84 347.961 682.377 348.774 681.71 349.399C681.042 350.025 680.201 350.434 679.297 350.573L679.204 350.588C679.429 352.867 679.827 355.125 680.395 357.344C682.04 363.537 684.946 369.324 688.932 374.341C692.918 379.358 697.898 383.498 703.559 386.501C703.931 386.692 704.293 386.882 704.664 387.063C701.468 396.122 699.463 405.558 698.7 415.134C698.267 420.784 698.293 426.459 698.776 432.105L698.747 431.905C697.527 425.627 694.178 419.963 689.266 415.868C681.97 409.875 671.662 407.668 663.791 402.85C662.954 402.313 661.982 402.026 660.987 402.024C659.993 402.021 659.019 402.303 658.18 402.836C657.341 403.369 656.672 404.131 656.251 405.032C655.831 405.933 655.677 406.935 655.808 407.921C655.818 407.991 655.829 408.061 655.84 408.131C657.013 408.609 658.156 409.159 659.261 409.779C659.893 410.136 660.512 410.515 661.117 410.915C661.878 411.424 662.468 412.15 662.809 412.999C663.15 413.848 663.226 414.78 663.028 415.673C662.83 416.567 662.367 417.379 661.7 418.005C661.032 418.631 660.191 419.04 659.286 419.179L659.194 419.194C659.127 419.203 659.07 419.213 659.003 419.222C661.008 424.009 663.822 428.415 667.322 432.248C671.645 436.887 676.87 440.594 682.677 443.142C688.484 445.69 694.75 447.025 701.091 447.065H701.101C702.822 454.545 705.316 461.826 708.542 468.79H735.127C735.223 468.495 735.308 468.19 735.394 467.894C732.933 468.049 730.463 467.902 728.038 467.456C730.01 465.036 731.983 462.596 733.955 460.176C733.999 460.131 734.041 460.083 734.079 460.033C735.08 458.795 736.09 457.565 737.09 456.327L737.091 456.325C737.144 452.528 736.707 448.739 735.793 445.054ZM705.35 385.167L705.364 385.148L705.35 385.186V385.167ZM699.462 438.251L699.233 437.736C699.243 437.365 699.243 436.993 699.233 436.612C699.233 436.507 699.214 436.402 699.214 436.297C699.3 436.955 699.376 437.612 699.471 438.27L699.462 438.251Z" fill="#CCCCCC"/>
<path d="M796.54 133.466H597.307C596.876 133.457 596.466 133.279 596.164 132.971C595.863 132.662 595.694 132.248 595.694 131.817C595.694 131.386 595.863 130.972 596.164 130.664C596.466 130.356 596.876 130.178 597.307 130.168H796.54C796.971 130.178 797.381 130.356 797.682 130.664C797.984 130.972 798.153 131.386 798.153 131.817C798.153 132.248 797.984 132.662 797.682 132.971C797.381 133.279 796.971 133.457 796.54 133.466Z" fill="#CACACA"/>
<path d="M607.937 125.4C610.613 125.4 612.783 123.182 612.783 120.446C612.783 117.71 610.613 115.492 607.937 115.492C605.26 115.492 603.091 117.71 603.091 120.446C603.091 123.182 605.26 125.4 607.937 125.4Z" fill="#3F3D56"/>
<path d="M624.678 125.4C627.355 125.4 629.524 123.182 629.524 120.446C629.524 117.71 627.355 115.492 624.678 115.492C622.002 115.492 619.832 117.71 619.832 120.446C619.832 123.182 622.002 125.4 624.678 125.4Z" fill="#3F3D56"/>
<path d="M641.42 125.4C644.096 125.4 646.266 123.182 646.266 120.446C646.266 117.71 644.096 115.492 641.42 115.492C638.743 115.492 636.573 117.71 636.573 120.446C636.573 123.182 638.743 125.4 641.42 125.4Z" fill="#3F3D56"/>
<path d="M788.752 117.406H777.907C777.692 117.41 777.488 117.499 777.337 117.652C777.187 117.806 777.102 118.012 777.102 118.227C777.102 118.442 777.187 118.649 777.337 118.802C777.488 118.956 777.692 119.044 777.907 119.048H788.752C788.967 119.044 789.172 118.956 789.323 118.802C789.473 118.649 789.558 118.442 789.558 118.227C789.558 118.012 789.473 117.806 789.323 117.652C789.172 117.499 788.967 117.41 788.752 117.406Z" fill="#3F3D56"/>
<path d="M788.752 120.489H777.907C777.692 120.493 777.488 120.581 777.337 120.735C777.187 120.888 777.102 121.095 777.102 121.31C777.102 121.525 777.187 121.731 777.337 121.885C777.488 122.038 777.692 122.127 777.907 122.131H788.752C788.967 122.127 789.172 122.038 789.323 121.885C789.473 121.731 789.558 121.525 789.558 121.31C789.558 121.095 789.473 120.888 789.323 120.735C789.172 120.581 788.967 120.493 788.752 120.489Z" fill="#3F3D56"/>
<path d="M788.752 123.567H777.907C777.692 123.571 777.488 123.66 777.337 123.813C777.187 123.967 777.102 124.173 777.102 124.388C777.102 124.603 777.187 124.81 777.337 124.963C777.488 125.117 777.692 125.205 777.907 125.209H788.752C788.967 125.205 789.172 125.117 789.323 124.963C789.473 124.81 789.558 124.603 789.558 124.388C789.558 124.173 789.473 123.967 789.323 123.813C789.172 123.66 788.967 123.571 788.752 123.567Z" fill="#3F3D56"/>
<path d="M465.498 284.768H349.988C348.354 284.77 346.788 285.422 345.634 286.579C344.48 287.736 343.833 289.303 343.835 290.938V473.409H471.668V290.938C471.669 290.127 471.509 289.325 471.199 288.576C470.889 287.827 470.435 287.147 469.862 286.574C469.289 286.001 468.609 285.547 467.86 285.237C467.111 284.927 466.309 284.767 465.498 284.768ZM408.132 388.446C404.52 388.429 401.06 386.987 398.506 384.432C395.951 381.878 394.509 378.419 394.492 374.806V353.76C394.495 350.144 395.934 346.678 398.491 344.123C401.049 341.567 404.516 340.132 408.132 340.132C411.747 340.132 415.215 341.567 417.773 344.123C420.33 346.678 421.769 350.144 421.772 353.76V374.806C421.755 378.419 420.313 381.878 417.758 384.433C415.204 386.987 411.744 388.429 408.132 388.446Z" fill="#E6E6E6"/>
<path d="M343.438 467.573V485.178C343.44 486.09 343.803 486.964 344.448 487.609C345.093 488.254 345.968 488.617 346.88 488.619H468.623C469.534 488.615 470.407 488.251 471.051 487.606C471.696 486.962 472.06 486.089 472.065 485.178V467.573L343.438 467.573Z" fill="#CCCCCC"/>
<path d="M656.773 -5.46875e-06H163.012C158.77 0.00674336 154.704 1.69493 151.704 4.69459C148.704 7.69425 147.016 11.7607 147.009 16.0029V349.194C147.013 353.437 148.701 357.505 151.701 360.506C154.701 363.506 158.769 365.193 163.012 365.197H656.773C661.016 365.193 665.084 363.506 668.084 360.506C671.084 357.505 672.772 353.437 672.776 349.194V16.0029C672.769 11.7607 671.081 7.69425 668.081 4.69459C665.081 1.69493 661.015 0.00674072 656.773 -5.46875e-06Z" fill="#E6E6E6"/>
<path d="M652.651 11.5587H167.138C164.866 11.5636 162.69 12.4693 161.085 14.0771C159.481 15.6849 158.58 17.8634 158.579 20.1348V345.068C158.583 347.336 159.486 349.511 161.09 351.115C162.694 352.719 164.869 353.622 167.138 353.626H652.651C654.92 353.622 657.094 352.719 658.698 351.115C660.303 349.511 661.206 347.336 661.209 345.068V20.1348C661.209 17.8634 660.308 15.6849 658.704 14.0771C657.099 12.4693 654.923 11.5636 652.651 11.5587Z" fill="white"/>
<path d="M661.209 20.1348V345.068C661.206 347.336 660.303 349.511 658.698 351.115C657.094 352.719 654.92 353.622 652.651 353.626H481.448C462.509 336.062 446.971 315.156 435.614 291.956C434.867 290.462 434.155 288.949 433.479 287.419C423.131 264.964 416.865 240.846 414.974 216.194C414.85 214.682 414.743 213.169 414.672 211.639C414.44 207.725 414.334 203.757 414.334 199.771C414.3 173.264 419.305 146.992 429.084 122.355C429.671 120.825 430.294 119.312 430.934 117.8C450.614 71.5611 486.175 33.8805 531.197 11.5587H652.651C654.922 11.5636 657.099 12.4693 658.704 14.0771C660.308 15.6849 661.209 17.8634 661.209 20.1348Z" fill="#FF6F3A"/>
<path d="M628.245 56.3272H173.952C173.48 56.3171 173.03 56.1224 172.699 55.7846C172.369 55.4469 172.184 54.9932 172.184 54.5206C172.184 54.048 172.369 53.5942 172.699 53.2565C173.03 52.9188 173.48 52.7241 173.952 52.714H628.245C628.718 52.7241 629.167 52.9188 629.498 53.2565C629.829 53.5942 630.014 54.048 630.014 54.5206C630.014 54.9932 629.829 55.4469 629.498 55.7846C629.167 56.1224 628.718 56.3171 628.245 56.3272Z" fill="#CACACA"/>
<path d="M204.876 43.4899C210.724 43.4899 215.464 38.6441 215.464 32.6664C215.464 26.6888 210.724 21.843 204.876 21.843C199.029 21.843 194.289 26.6888 194.289 32.6664C194.289 38.6441 199.029 43.4899 204.876 43.4899Z" fill="#3F3D56"/>
<path d="M241.452 43.4899C247.299 43.4899 252.039 38.6441 252.039 32.6664C252.039 26.6888 247.299 21.843 241.452 21.843C235.604 21.843 230.864 26.6888 230.864 32.6664C230.864 38.6441 235.604 43.4899 241.452 43.4899Z" fill="#3F3D56"/>
<path d="M278.027 43.4899C283.874 43.4899 288.614 38.6441 288.614 32.6664C288.614 26.6888 283.874 21.843 278.027 21.843C272.179 21.843 267.439 26.6888 267.439 32.6664C267.439 38.6441 272.179 43.4899 278.027 43.4899Z" fill="#3F3D56"/>
<path d="M606.224 24.5257H580.243C579.728 24.5359 579.237 24.7476 578.877 25.1154C578.516 25.4832 578.314 25.9778 578.314 26.4929C578.314 27.008 578.516 27.5026 578.877 27.8704C579.237 28.2382 579.728 28.4499 580.243 28.4601H606.224C606.739 28.4499 607.229 28.2382 607.59 27.8704C607.951 27.5026 608.153 27.008 608.153 26.4929C608.153 25.9778 607.951 25.4832 607.59 25.1154C607.229 24.7476 606.739 24.5359 606.224 24.5257Z" fill="#3F3D56"/>
<path d="M606.224 31.9101H580.243C579.728 31.9202 579.237 32.132 578.877 32.4998C578.516 32.8676 578.314 33.3622 578.314 33.8773C578.314 34.3924 578.516 34.887 578.877 35.2548C579.237 35.6226 579.728 35.8343 580.243 35.8445H606.224C606.739 35.8343 607.229 35.6226 607.59 35.2548C607.951 34.887 608.153 34.3924 608.153 33.8773C608.153 33.3622 607.951 32.8676 607.59 32.4998C607.229 32.132 606.739 31.9202 606.224 31.9101Z" fill="#3F3D56"/>
<path d="M606.224 39.2847H580.243C579.728 39.2949 579.237 39.5067 578.877 39.8745C578.516 40.2423 578.314 40.7368 578.314 41.2519C578.314 41.7671 578.516 42.2616 578.877 42.6294C579.237 42.9973 579.728 43.209 580.243 43.2192H606.224C606.739 43.209 607.229 42.9973 607.59 42.6294C607.951 42.2616 608.153 41.7671 608.153 41.2519C608.153 40.7368 607.951 40.2423 607.59 39.8745C607.229 39.5067 606.739 39.2949 606.224 39.2847Z" fill="#3F3D56"/>
<path d="M313.051 161.871H249.522C247.126 161.871 245.183 163.813 245.183 166.21V172.972C245.183 175.368 247.126 177.311 249.522 177.311H313.051C315.447 177.311 317.39 175.368 317.39 172.972V166.21C317.39 163.813 315.447 161.871 313.051 161.871Z" fill="#FF6F3A"/>
<path d="M349.722 192.752H212.851C210.454 192.752 208.512 194.694 208.512 197.091V203.853C208.512 206.25 210.454 208.192 212.851 208.192H349.722C352.119 208.192 354.061 206.25 354.061 203.853V197.091C354.061 194.694 352.119 192.752 349.722 192.752Z" fill="#E6E6E6"/>
<path d="M349.722 223.633H212.851C210.454 223.633 208.512 225.575 208.512 227.972V234.734C208.512 237.131 210.454 239.073 212.851 239.073H349.722C352.119 239.073 354.061 237.131 354.061 234.734V227.972C354.061 225.575 352.119 223.633 349.722 223.633Z" fill="#E6E6E6"/>
<path d="M220.392 334.997C220.402 341.357 219.269 347.667 217.047 353.626H167.138C164.869 353.622 162.694 352.719 161.09 351.115C159.486 349.511 158.583 347.336 158.579 345.068V282.295C161.368 281.844 164.188 281.618 167.013 281.619C174.023 281.618 180.964 282.999 187.441 285.681C193.917 288.363 199.802 292.295 204.758 297.252C209.715 302.209 213.647 308.093 216.329 314.57C219.012 321.046 220.392 327.987 220.392 334.997Z" fill="#FF6F3A"/>
<path opacity="0.2" d="M661.654 122.355V117.8H585.305V65.0085H580.768V117.8H493.263V65.0085H488.726V117.8H430.934C430.294 119.312 429.671 120.825 429.084 122.355H488.726V211.639H414.672C414.743 213.169 414.85 214.682 414.974 216.194H488.726V287.419H433.479C434.155 288.949 434.867 290.462 435.614 291.956H488.726V351.829H493.263V291.956H580.768V351.829H585.305V291.956H661.654V287.419H585.305C585.305 278.066 587.147 268.804 590.727 260.162C594.306 251.521 599.553 243.669 606.167 237.055C612.78 230.442 620.632 225.195 629.273 221.616C637.915 218.037 647.177 216.194 656.53 216.194H661.654V211.639H585.305V122.355H661.654ZM580.768 287.419H493.263V216.194H580.768V287.419ZM580.768 211.639H493.263V209.86C493.263 186.652 502.482 164.395 518.892 147.984C535.303 131.574 557.56 122.355 580.768 122.355L580.768 211.639Z" fill="black"/>
<path d="M600.182 319.916C599.208 319.96 598.244 319.705 597.42 319.183C596.596 318.662 595.953 317.9 595.577 317C595.201 316.101 595.11 315.107 595.317 314.155C595.525 313.202 596.02 312.336 596.736 311.674C596.856 311.198 596.942 310.856 597.061 310.379C597.019 310.275 596.975 310.172 596.932 310.068C592.555 299.63 577.719 299.702 573.379 310.156C569.527 319.434 564.622 328.728 563.415 338.537C562.883 342.874 563.107 347.269 564.078 351.529C555.03 331.792 550.332 310.341 550.301 288.629C550.299 283.181 550.602 277.736 551.208 272.322C551.709 267.883 552.404 263.476 553.292 259.1C558.142 235.359 568.554 213.107 583.673 194.171C590.991 190.178 596.909 184.038 600.629 176.578C601.977 173.897 602.93 171.034 603.458 168.08C602.632 168.188 601.793 168.256 600.968 168.31C600.711 168.323 600.44 168.337 600.183 168.35L600.086 168.355C599.178 168.395 598.279 168.173 597.495 167.714C596.711 167.256 596.077 166.58 595.668 165.769C595.259 164.958 595.093 164.046 595.191 163.144C595.288 162.241 595.644 161.385 596.217 160.68C596.573 160.241 596.93 159.803 597.287 159.365C597.828 158.688 598.383 158.025 598.924 157.348C598.987 157.284 599.045 157.216 599.1 157.145C599.723 156.374 600.345 155.616 600.968 154.845C599.831 153.081 598.303 151.604 596.502 150.528C590.263 146.874 581.656 149.405 577.15 155.048C572.63 160.691 571.778 168.608 573.347 175.658C574.687 181.694 577.61 187.228 580.899 192.493C580.56 192.926 580.208 193.345 579.87 193.778C573.686 201.731 568.295 210.27 563.777 219.274C564.876 209.187 563.564 198.983 559.95 189.502C556.287 180.666 549.422 173.224 543.376 165.585C536.114 156.41 521.223 160.414 519.943 172.045C519.931 172.158 519.919 172.271 519.907 172.383C520.805 172.89 521.684 173.427 522.544 173.996C523.625 174.718 524.462 175.75 524.946 176.955C525.43 178.161 525.539 179.485 525.258 180.754C524.977 182.023 524.319 183.177 523.371 184.065C522.423 184.954 521.228 185.535 519.944 185.733L519.812 185.753C520.132 188.99 520.698 192.197 521.504 195.348C523.84 204.144 527.968 212.362 533.629 219.488C539.29 226.614 546.362 232.494 554.402 236.758C554.929 237.029 555.444 237.299 555.972 237.557C551.432 250.422 548.584 263.824 547.5 277.424C546.886 285.447 546.923 293.508 547.608 301.525L547.568 301.241C545.835 292.326 541.079 284.281 534.103 278.466C523.741 269.954 509.101 266.819 497.922 259.977C492.541 256.684 485.645 260.94 486.584 267.179C486.599 267.278 486.615 267.378 486.63 267.477C488.297 268.156 489.919 268.938 491.488 269.818C492.386 270.325 493.265 270.863 494.125 271.431C495.206 272.153 496.043 273.185 496.527 274.391C497.012 275.597 497.12 276.921 496.839 278.189C496.558 279.458 495.9 280.612 494.952 281.501C494.004 282.389 492.809 282.97 491.525 283.168L491.394 283.189C491.299 283.202 491.218 283.216 491.123 283.229C493.97 290.028 497.967 296.286 502.937 301.728C509.077 308.317 516.498 313.582 524.745 317.2C532.992 320.819 541.891 322.715 550.897 322.772H550.91C553.355 333.395 556.897 343.735 561.479 353.626H599.235C599.371 353.207 599.493 352.774 599.614 352.354C596.12 352.574 592.611 352.365 589.167 351.732C591.968 348.294 594.77 344.83 597.571 341.393C597.633 341.328 597.692 341.261 597.747 341.19C599.168 339.43 600.602 337.685 602.023 335.926L602.024 335.923C602.1 330.531 601.481 325.151 600.183 319.916L600.182 319.916ZM556.946 234.864L556.966 234.837L556.946 234.891V234.864ZM548.583 310.254L548.258 309.523C548.272 308.996 548.272 308.468 548.258 307.926C548.258 307.777 548.231 307.629 548.231 307.48C548.353 308.414 548.461 309.347 548.596 310.281L548.583 310.254Z" fill="#2F2E41"/>
<path d="M263.977 231.612V180.868C263.977 173.079 260.882 165.609 255.375 160.102C249.867 154.594 242.397 151.5 234.608 151.5H127.101C119.312 151.5 111.842 154.594 106.334 160.102C100.826 165.609 97.7322 173.079 97.7322 180.868V459.25C97.7322 467.04 100.826 474.51 106.334 480.017C111.842 485.525 119.312 488.619 127.101 488.619H234.608C238.465 488.619 242.284 487.86 245.847 486.384C249.41 484.908 252.647 482.745 255.375 480.017C258.102 477.29 260.265 474.053 261.741 470.489C263.217 466.926 263.977 463.107 263.977 459.25V267.732C264.468 267.732 264.939 267.537 265.286 267.189C265.634 266.842 265.829 266.371 265.829 265.88V233.464C265.829 232.973 265.634 232.502 265.286 232.154C264.939 231.807 264.468 231.612 263.977 231.612Z" fill="#E6E6E6"/>
<path d="M257.726 181.07V459.05C257.727 464.824 255.449 470.365 251.388 474.469C247.327 478.574 241.81 480.91 236.036 480.97C235.957 480.978 235.876 480.982 235.796 480.98H127.766C121.95 480.979 116.373 478.669 112.26 474.556C108.147 470.444 105.837 464.866 105.836 459.05V181.07C105.837 175.254 108.147 169.676 112.26 165.564C116.373 161.451 121.95 159.141 127.766 159.14H140.876C140.232 160.723 139.986 162.44 140.161 164.139C140.336 165.839 140.926 167.47 141.879 168.889C142.832 170.307 144.119 171.469 145.627 172.273C147.135 173.078 148.817 173.499 150.526 173.5H212.116C213.824 173.495 215.504 173.072 217.009 172.266C218.515 171.461 219.8 170.299 220.751 168.881C221.703 167.464 222.292 165.834 222.467 164.136C222.643 162.437 222.398 160.722 221.756 159.14H235.796C241.612 159.141 247.19 161.451 251.303 165.564C255.415 169.676 257.726 175.254 257.726 181.07Z" fill="white"/>
<path d="M236.306 472.4C236.306 475.28 236.216 478.137 236.036 480.97C235.957 480.978 235.876 480.982 235.796 480.98H127.766C121.95 480.979 116.373 478.669 112.26 474.556C108.147 470.444 105.837 464.866 105.836 459.05V335.17C141.034 336.945 174.204 352.178 198.488 377.719C222.771 403.261 236.31 437.157 236.306 472.4Z" fill="#F2F2F2"/>
<path d="M98.3262 260C97.6634 259.999 97.028 259.735 96.5593 259.267C96.0907 258.798 95.827 258.162 95.8262 257.5V240.5C95.8262 239.837 96.0896 239.201 96.5585 238.732C97.0273 238.263 97.6632 238 98.3262 238C98.9893 238 99.6252 238.263 100.094 238.732C100.563 239.201 100.826 239.837 100.826 240.5V257.5C100.825 258.162 100.562 258.798 100.093 259.267C99.6245 259.735 98.989 259.999 98.3262 260Z" fill="#E6E6E6"/>
<path d="M195.046 246.426H168.517C166.12 246.426 164.178 248.368 164.178 250.765V257.527C164.178 259.924 166.12 261.866 168.517 261.866H195.046C197.442 261.866 199.385 259.924 199.385 257.527V250.765C199.385 248.368 197.442 246.426 195.046 246.426Z" fill="#FF6F3A"/>
<path d="M231.717 277.307H131.845C129.449 277.307 127.507 279.249 127.507 281.646V288.408C127.507 290.805 129.449 292.747 131.845 292.747H231.717C234.113 292.747 236.056 290.805 236.056 288.408V281.646C236.056 279.249 234.113 277.307 231.717 277.307Z" fill="#E6E6E6"/>
<path d="M231.717 308.188H131.845C129.449 308.188 127.507 310.131 127.507 312.527V319.29C127.507 321.686 129.449 323.629 131.845 323.629H231.717C234.113 323.629 236.056 321.686 236.056 319.29V312.527C236.056 310.131 234.113 308.188 231.717 308.188Z" fill="#E6E6E6"/>
<path d="M207.687 465.161C207.23 465.182 206.777 465.062 206.391 464.817C206.004 464.572 205.702 464.215 205.526 463.793C205.349 463.371 205.307 462.904 205.404 462.457C205.501 462.01 205.734 461.604 206.069 461.293L206.222 460.686C206.202 460.637 206.182 460.588 206.162 460.54C205.701 459.452 204.93 458.525 203.944 457.875C202.958 457.224 201.803 456.88 200.622 456.884C199.441 456.888 198.287 457.242 197.307 457.899C196.326 458.557 195.561 459.49 195.109 460.581C193.301 464.935 191 469.296 190.433 473.899C190.183 475.934 190.289 477.997 190.744 479.996C186.498 470.734 184.294 460.667 184.279 450.479C184.279 447.922 184.421 445.367 184.705 442.827C184.94 440.744 185.266 438.676 185.683 436.622C187.959 425.481 192.845 415.039 199.94 406.153C203.374 404.279 206.151 401.398 207.897 397.897C208.529 396.639 208.976 395.296 209.224 393.909C208.837 393.96 208.443 393.992 208.055 394.017C207.935 394.024 207.808 394.03 207.687 394.036L207.642 394.038C207.216 394.057 206.794 393.953 206.426 393.738C206.058 393.522 205.76 393.205 205.568 392.825C205.377 392.444 205.299 392.016 205.345 391.593C205.39 391.169 205.557 390.768 205.826 390.437C205.993 390.231 206.161 390.025 206.328 389.82C206.582 389.502 206.843 389.191 207.097 388.873C207.126 388.843 207.153 388.811 207.179 388.778C207.471 388.416 207.763 388.06 208.055 387.698C207.522 386.871 206.805 386.178 205.96 385.673C203.032 383.958 198.993 385.146 196.879 387.794C194.758 390.442 194.358 394.157 195.094 397.465C195.819 400.281 197.017 402.952 198.638 405.365C198.479 405.569 198.314 405.765 198.155 405.969C195.253 409.7 192.723 413.708 190.603 417.933C191.119 413.199 190.503 408.411 188.807 403.962C187.088 399.815 183.867 396.323 181.03 392.739C180.279 391.776 179.26 391.057 178.101 390.673C176.943 390.289 175.696 390.257 174.519 390.582C173.342 390.906 172.288 391.572 171.489 392.496C170.691 393.419 170.184 394.559 170.033 395.77C170.028 395.823 170.022 395.876 170.016 395.929C170.438 396.166 170.85 396.419 171.254 396.686C171.761 397.024 172.154 397.508 172.381 398.074C172.608 398.64 172.659 399.261 172.527 399.857C172.395 400.452 172.087 400.994 171.642 401.411C171.197 401.828 170.636 402.1 170.034 402.193L169.972 402.203C170.122 403.722 170.387 405.227 170.766 406.705C171.862 410.833 173.799 414.69 176.456 418.033C179.112 421.377 182.431 424.136 186.204 426.138C186.451 426.265 186.693 426.392 186.94 426.512C184.81 432.55 183.474 438.839 182.965 445.221C182.677 448.986 182.694 452.768 183.016 456.531L182.997 456.397C182.184 452.214 179.952 448.438 176.678 445.71C171.815 441.715 164.945 440.244 159.7 437.034C159.142 436.676 158.494 436.485 157.831 436.483C157.169 436.481 156.52 436.669 155.96 437.024C155.401 437.38 154.955 437.887 154.675 438.488C154.395 439.088 154.292 439.756 154.379 440.413L154.401 440.553C155.183 440.872 155.944 441.239 156.68 441.652C157.102 441.89 157.514 442.142 157.918 442.409C158.425 442.748 158.818 443.231 159.045 443.797C159.272 444.363 159.323 444.985 159.192 445.58C159.06 446.175 158.751 446.717 158.306 447.134C157.861 447.551 157.3 447.824 156.698 447.916L156.636 447.926C156.592 447.932 156.553 447.939 156.509 447.945C157.845 451.135 159.72 454.072 162.053 456.626C164.934 459.718 168.417 462.188 172.287 463.886C176.157 465.585 180.333 466.474 184.559 466.501H184.565C185.712 471.486 187.375 476.338 189.525 480.98H207.243C207.306 480.783 207.363 480.58 207.42 480.383C205.78 480.486 204.134 480.388 202.518 480.091C203.832 478.478 205.147 476.852 206.461 475.239C206.491 475.209 206.518 475.177 206.544 475.144C207.211 474.318 207.884 473.499 208.551 472.674L208.551 472.673C208.587 470.142 208.296 467.617 207.687 465.161ZM187.397 425.249L187.407 425.236L187.397 425.261V425.249ZM183.473 460.627L183.321 460.284C183.327 460.036 183.327 459.789 183.321 459.535C183.321 459.465 183.308 459.395 183.308 459.325C183.365 459.763 183.416 460.201 183.479 460.64L183.473 460.627Z" fill="#CCCCCC"/>
<path d="M97.8262 227C97.1634 226.999 96.528 226.735 96.0593 226.267C95.5907 225.798 95.327 225.162 95.3262 224.5V207.5C95.3262 206.837 95.5896 206.201 96.0585 205.732C96.5273 205.263 97.1632 205 97.8262 205C98.4893 205 99.1252 205.263 99.594 205.732C100.063 206.201 100.326 206.837 100.326 207.5V224.5C100.325 225.162 100.062 225.798 99.5931 226.267C99.1245 226.735 98.489 226.999 97.8262 227Z" fill="#E6E6E6"/>
<path d="M164.326 162C164.327 161.337 164.591 160.701 165.059 160.233C165.528 159.764 166.163 159.5 166.826 159.5H183.826C184.489 159.5 185.125 159.763 185.594 160.232C186.063 160.701 186.326 161.337 186.326 162C186.326 162.663 186.063 163.299 185.594 163.767C185.125 164.236 184.489 164.5 183.826 164.5H166.826C166.163 164.499 165.528 164.235 165.059 163.767C164.591 163.298 164.327 162.662 164.326 162Z" fill="white"/>
<path d="M98.3262 289C97.6634 288.999 97.028 288.735 96.5593 288.267C96.0907 287.798 95.827 287.162 95.8262 286.5V269.5C95.8262 268.837 96.0896 268.201 96.5585 267.732C97.0273 267.263 97.6632 267 98.3262 267C98.9893 267 99.6252 267.263 100.094 267.732C100.563 268.201 100.826 268.837 100.826 269.5V286.5C100.825 287.162 100.562 287.798 100.093 288.267C99.6245 288.735 98.989 288.999 98.3262 289Z" fill="#E6E6E6"/>
<path d="M193.326 164.5C194.707 164.5 195.826 163.38 195.826 162C195.826 160.619 194.707 159.5 193.326 159.5C191.946 159.5 190.826 160.619 190.826 162C190.826 163.38 191.946 164.5 193.326 164.5Z" fill="white"/>
<path d="M858.941 488.613L1.19068 488.92C0.875489 488.919 0.573525 488.793 0.350974 488.57C0.128422 488.347 0.0034394 488.045 0.0034394 487.729C0.0034394 487.414 0.128422 487.112 0.350974 486.889C0.573525 486.665 0.875489 486.54 1.19068 486.539L858.941 486.231C859.256 486.231 859.559 486.357 859.783 486.58C860.006 486.803 860.131 487.106 860.131 487.422C860.131 487.738 860.006 488.041 859.783 488.264C859.559 488.487 859.256 488.613 858.941 488.613Z" fill="#CACACA"/>
<path d="M366.773 226.106L362.262 227.073C362.232 225.186 361.997 223.307 361.56 221.471C361.15 223.72 360.286 225.861 359.02 227.765L333.144 233.291L308.3 207.073C308.262 193.965 315.542 184.003 328.594 184.003C329.381 184.003 330.196 184.041 331.02 184.116C338.072 182.936 345.307 184.538 351.201 188.585C357.095 192.632 361.19 198.808 362.622 205.813C371.873 214.922 368.517 220.277 366.773 226.106Z" fill="#2F2E41"/>
<path d="M379.495 532.711H388.881L393.347 496.506L379.493 496.507L379.495 532.711Z" fill="#FFB6B6"/>
<path d="M377.167 528.081L392.005 527.195V533.552L406.112 543.295C406.808 543.776 407.333 544.467 407.609 545.267C407.885 546.068 407.898 546.936 407.646 547.744C407.394 548.552 406.891 549.259 406.208 549.761C405.526 550.263 404.702 550.533 403.855 550.533H386.19L383.146 544.245L381.957 550.533H375.296L377.167 528.081Z" fill="#2F2E41"/>
<path d="M269.531 522.494L277.695 527.126L299.445 497.841L287.396 491.005L269.531 522.494Z" fill="#FFB6B6"/>
<path d="M269.791 517.318L283.133 523.87L279.996 529.399L287.458 544.834C287.826 545.597 287.941 546.457 287.787 547.289C287.632 548.122 287.215 548.883 286.597 549.462C285.979 550.04 285.192 550.406 284.351 550.506C283.51 550.606 282.659 550.434 281.923 550.017L266.559 541.299L267.014 534.327L262.877 539.21L257.084 535.923L269.791 517.318Z" fill="#2F2E41"/>
<path d="M414.19 232.449C412.987 232.623 411.837 233.059 410.821 233.725C409.805 234.392 408.947 235.273 408.308 236.307C407.669 237.34 407.265 238.502 407.124 239.709C406.982 240.916 407.107 242.139 407.49 243.293L393.127 255.724L398.553 266.295L418.589 248.454C420.485 247.683 422.031 246.244 422.936 244.409C423.841 242.574 424.041 240.47 423.499 238.498C422.956 236.525 421.709 234.819 419.994 233.705C418.278 232.59 416.213 232.143 414.19 232.449Z" fill="#FFB6B6"/>
<path d="M399.726 275.199C394.935 282.456 384.197 289.464 368.261 295.676C367.382 296.029 366.439 296.195 365.493 296.164C364.546 296.133 363.616 295.906 362.762 295.497C356.748 292.76 352.894 282.585 352.532 281.598L340.884 265.885C340.677 265.656 335.231 259.475 335.854 253.397C335.994 252.124 336.408 250.896 337.068 249.798C337.728 248.699 338.618 247.757 339.676 247.035C348.494 240.499 368.255 263.2 370.819 266.219L383.716 258.361L393.113 254.168L400.699 244.937L411.381 255.858L401.774 271.141C401.262 272.573 400.574 273.936 399.726 275.199Z" fill="#2F2E41"/>
<path d="M366.228 303.039C366.228 303.039 393.826 347 388.826 352C383.826 357 376.046 358.313 376.046 358.313L358.826 336L366.228 303.039Z" fill="#2F2E41"/>
<path d="M341.826 243L354.834 251.799C360.879 255.889 365.426 261.839 367.785 268.746C370.144 275.654 370.187 283.142 367.905 290.075L364.244 301.206L341.826 243Z" fill="#2F2E41"/>
<path d="M318.826 363L317.087 369.057L311.153 442.098L281.507 497.348L295.656 507.454L336.083 454.899L352.073 402.716L377.184 518.235L396.05 516.887L382.947 356.722L358.084 311.639L318.826 363Z" fill="#2F2E41"/>
<path d="M339.614 245.213L357.718 260.008C361.691 263.255 364.552 267.661 365.902 272.611C366.515 274.859 366.806 277.182 366.767 279.512L366.228 311.639L382.826 356C382.826 356 337.826 373 331.826 358C325.826 343 339.614 245.213 339.614 245.213Z" fill="#FF6F3A"/>
<path d="M345.029 365.786C322.549 365.786 317.07 365.956 316.715 365.884L316.36 365.812V352.291L321.826 328C321.187 320.459 319.691 310.515 319.826 302C320.316 271.225 318.803 241.163 318.803 241.163L330.701 230.18L336.107 233.698L346.133 243.724C357.787 272.405 367.035 299.407 367.094 301.142L367.826 331L364.826 343C351.255 352.58 363.655 365.786 345.029 365.786Z" fill="#2F2E41"/>
<path opacity="0.2" d="M323.846 267.973L321.113 285.031L339.614 292.662L323.846 267.973Z" fill="black"/>
<path d="M342.484 226.98C352.488 226.98 360.597 218.87 360.597 208.867C360.597 198.863 352.488 190.753 342.484 190.753C332.48 190.753 324.37 198.863 324.37 208.867C324.37 218.87 332.48 226.98 342.484 226.98Z" fill="#FFB6B6"/>
<path opacity="0.2" d="M312.133 300.773C316.953 306.355 323.492 310.177 330.722 311.639C337.951 313.1 345.462 312.118 352.072 308.846L356.014 306.895L312.133 300.773Z" fill="black"/>
<path d="M375.164 296.603C374.356 295.696 373.359 294.976 372.242 294.495C371.126 294.015 369.918 293.785 368.704 293.821C367.489 293.858 366.297 294.161 365.212 294.708C364.127 295.255 363.175 296.033 362.423 296.988L344.134 291.854L338.303 302.207L364.233 309.095C365.92 310.252 367.974 310.749 370.004 310.493C372.034 310.236 373.899 309.244 375.246 307.705C376.594 306.165 377.33 304.184 377.314 302.138C377.299 300.092 376.534 298.123 375.164 296.603Z" fill="#FFB6B6"/>
<path d="M331.52 308.093C322.825 308.094 311.059 302.995 297.093 293.121C296.315 292.582 295.657 291.887 295.161 291.08C294.665 290.273 294.342 289.372 294.213 288.434C293.183 281.907 299.549 273.084 300.173 272.238L306.866 253.859C306.943 253.561 309.099 245.609 314.514 242.78C315.654 242.195 316.907 241.864 318.187 241.81C319.467 241.755 320.744 241.978 321.929 242.464C332.243 246.219 324.19 275.22 323.084 279.023L336.748 285.454L345.425 290.985L357.309 292.228L354.082 307.16L336.035 307.566C334.558 307.927 333.041 308.104 331.52 308.093Z" fill="#2F2E41"/>
<path d="M364.205 196.95C362.754 198.837 357.759 200.505 351.826 201.851C351.835 201.728 351.835 201.604 351.835 201.481C351.806 199.594 351.57 197.715 351.134 195.879C350.723 198.128 349.859 200.269 348.593 202.173C348.499 202.315 348.404 202.457 348.3 202.6C343.21 203.604 337.826 204.382 333.608 204.903C336.508 215.348 347.627 223.917 346.423 230.267L313.845 236.921C314.046 234.282 313.835 231.628 313.22 229.054C312.597 232.451 310.949 235.577 308.499 238.011L305.732 238.58L304.907 234.514C297.76 217.348 307.722 199.775 324.044 190.685C326.954 186.323 331.473 183.29 336.613 182.249L340.679 181.415C343.244 180.89 345.887 180.876 348.457 181.373C351.028 181.869 353.475 182.867 355.659 184.31C357.844 185.753 359.723 187.611 361.189 189.78C362.655 191.949 363.68 194.385 364.205 196.95Z" fill="#2F2E41"/>
<path d="M442.027 525.336L442.509 514.505C447.531 511.82 453.132 510.402 458.826 510.374C450.989 516.781 451.969 529.133 446.655 537.749C444.978 540.423 442.719 542.686 440.048 544.37C437.377 546.053 434.361 547.114 431.225 547.473L424.666 551.488C423.766 546.472 423.965 541.319 425.248 536.386C426.531 531.454 428.868 526.858 432.098 522.915C433.932 520.721 436.036 518.767 438.358 517.099C439.929 521.241 442.027 525.336 442.027 525.336Z" fill="#F2F2F2"/>
<path d="M457.927 551.741H229.545C229.229 551.74 228.928 551.614 228.705 551.391C228.482 551.168 228.357 550.866 228.357 550.551C228.357 550.235 228.482 549.933 228.705 549.71C228.928 549.487 229.229 549.361 229.545 549.36H457.927C458.083 549.359 458.239 549.39 458.383 549.449C458.528 549.509 458.66 549.597 458.771 549.707C458.882 549.818 458.97 549.949 459.03 550.094C459.09 550.239 459.121 550.394 459.121 550.551C459.121 550.707 459.09 550.862 459.03 551.007C458.97 551.152 458.882 551.283 458.771 551.394C458.66 551.504 458.528 551.592 458.383 551.652C458.239 551.711 458.083 551.742 457.927 551.741Z" fill="#CACACA"/>
<path d="M73.2539 232.002C73.2539 232.002 87.6055 262.822 84.7299 262.426C81.8543 262.029 73.9215 258.353 66.8873 258.352" stroke="white" stroke-width="6"/>
<path d="M32.4182 125.359C25.811 142.015 22.4174 151.549 32.6454 178.859C37.0061 190.425 45.5885 198.884 51.5412 194.635C57.4938 190.385 54.3085 184.118 48.7957 181.119C43.283 178.12 37.4907 179.297 32.1665 185.674C26.8423 192.051 39.7723 226.495 65.4809 245.153" stroke="white" stroke-width="6"/>
<path d="M19.3549 66.72C19.3549 68.08 18.7069 69.248 17.4109 70.224C16.1149 71.2 14.6349 71.688 12.9709 71.688C11.3069 71.688 9.96291 71.28 8.93891 70.464C7.93091 69.632 7.42691 68.776 7.42691 67.896C7.42691 67.016 7.67491 66.576 8.17091 66.576C8.55491 66.576 8.95491 66.768 9.37091 67.152C9.78691 67.536 10.2509 67.92 10.7629 68.304C11.2909 68.688 11.8829 68.88 12.5389 68.88C13.1949 68.88 13.9389 68.608 14.7709 68.064C15.6029 67.52 16.0189 67.064 16.0189 66.696C16.0189 66.328 15.5629 65.712 14.6509 64.848C13.7549 63.984 12.8509 63.096 11.9389 62.184C11.0429 61.256 10.5949 60.544 10.5949 60.048C10.5949 59.536 10.6829 58.984 10.8589 58.392C11.0509 57.8 11.2829 57.392 11.5549 57.168C12.4189 56.32 13.5309 55.592 14.8909 54.984C16.2669 54.36 17.4749 54.048 18.5149 54.048C19.1229 54.048 19.6269 54.312 20.0269 54.84C20.4269 55.352 20.6269 55.888 20.6269 56.448C20.6269 56.672 20.4429 56.856 20.0749 57C19.7229 57.128 19.2029 57.264 18.5149 57.408C17.8429 57.552 17.1549 57.76 16.4509 58.032C14.8189 58.64 14.0029 59.152 14.0029 59.568C14.0029 59.76 14.2829 60.112 14.8429 60.624C15.4029 61.12 16.0109 61.648 16.6669 62.208C17.3389 62.752 17.9549 63.448 18.5149 64.296C19.0749 65.128 19.3549 65.936 19.3549 66.72ZM24.2211 53.616C24.2211 52.944 24.4851 52.608 25.0131 52.608C25.4451 52.608 25.9411 52.968 26.5011 53.688C27.0611 54.408 27.3411 55.024 27.3411 55.536C27.3411 56.048 27.2371 56.768 27.0291 57.696C26.8211 58.624 26.6051 59.472 26.3811 60.24C26.1731 61.008 25.8531 62.104 25.4211 63.528C24.9891 64.936 24.6931 65.92 24.5331 66.48C25.5731 64.368 26.6691 62.648 27.8211 61.32C28.9891 59.992 29.9651 59.328 30.7491 59.328C31.2451 59.328 31.8131 59.768 32.4531 60.648C33.0931 61.512 33.4131 62.296 33.4131 63C33.4131 63.688 33.2851 64.696 33.0291 66.024C32.7731 67.352 32.3251 68.632 31.6851 69.864C31.0451 71.096 30.3891 71.712 29.7171 71.712C29.1891 71.712 28.9251 71.336 28.9251 70.584C28.9251 70.04 29.0851 69.152 29.4051 67.92C29.8691 66.08 30.1011 64.96 30.1011 64.56C30.1011 64.16 30.0371 63.96 29.9091 63.96C28.9811 63.96 27.6211 65.504 25.8291 68.592C25.2211 69.648 24.7091 70.432 24.2931 70.944C23.8931 71.456 23.5091 71.712 23.1411 71.712C22.7731 71.712 22.3251 71.416 21.7971 70.824C21.2851 70.232 21.0291 69.776 21.0291 69.456C21.0291 69.12 21.0931 68.632 21.2211 67.992C21.3651 67.352 21.5731 66.44 21.8451 65.256C22.1331 64.072 22.5971 61.928 23.2371 58.824C23.8931 55.704 24.2211 53.968 24.2211 53.616ZM38.1285 69.264C38.9925 68.88 39.7445 68.104 40.3845 66.936C41.0245 65.768 41.3445 64.672 41.3445 63.648C41.3445 62.624 41.2005 61.92 40.9125 61.536C40.2245 61.936 39.5365 62.776 38.8485 64.056C38.1765 65.336 37.8405 66.464 37.8405 67.44C37.8405 68.4 37.9365 69.008 38.1285 69.264ZM34.6245 67.68C34.6245 65.68 35.2405 63.784 36.4725 61.992C37.7205 60.2 38.9525 59.304 40.1685 59.304C41.3845 59.304 42.4085 59.736 43.2405 60.6C44.0725 61.448 44.4885 62.48 44.4885 63.696C44.4885 64.896 44.2005 66.12 43.6245 67.368C43.0485 68.616 42.2405 69.656 41.2005 70.488C40.1605 71.304 39.0485 71.712 37.8645 71.712C36.9845 71.712 36.2245 71.32 35.5845 70.536C34.9445 69.752 34.6245 68.8 34.6245 67.68ZM47.0098 63.384L46.8658 60.672C46.8658 59.776 47.1458 59.328 47.7058 59.328C48.0258 59.328 48.3378 59.448 48.6418 59.688C48.9618 59.928 49.2018 60.304 49.3618 60.816C49.9058 60.336 50.4978 59.952 51.1378 59.664C51.7938 59.36 52.3698 59.208 52.8658 59.208C54.0338 59.208 54.6178 59.488 54.6178 60.048C54.6178 60.336 54.5618 60.552 54.4498 60.696C54.3538 60.824 54.2738 60.92 54.2098 60.984C54.1618 61.048 54.0658 61.136 53.9218 61.248C53.7938 61.344 53.6978 61.416 53.6338 61.464C53.2658 61.704 53.0018 61.872 52.8418 61.968C52.1218 62.416 51.5058 62.96 50.9938 63.6C50.4818 64.224 50.0978 65.096 49.8418 66.216C49.4098 68.056 48.9858 69.432 48.5698 70.344C48.1698 71.24 47.7138 71.688 47.2018 71.688C46.7058 71.688 46.3298 71.448 46.0738 70.968C45.8338 70.488 45.7138 70.04 45.7138 69.624C45.7138 69.192 45.8658 68.552 46.1698 67.704C46.4898 66.856 46.7058 66.128 46.8178 65.52C46.9458 64.896 47.0098 64.184 47.0098 63.384ZM60.6012 62.184C60.4732 62.616 60.2812 63.224 60.0252 64.008C59.7852 64.776 59.4812 65.744 59.1132 66.912C58.7612 68.08 58.5852 68.704 58.5852 68.784C58.5852 68.848 58.7132 68.88 58.9692 68.88C59.2412 68.88 59.8732 68.704 60.8652 68.352C61.8572 67.984 62.4412 67.8 62.6172 67.8C63.0172 67.8 63.2172 68.072 63.2172 68.616C63.2172 69.16 62.6812 69.816 61.6092 70.584C60.5372 71.336 59.4172 71.712 58.2492 71.712C57.7372 71.712 57.1292 71.432 56.4252 70.872C55.7212 70.312 55.3692 69.744 55.3692 69.168C55.3692 68.688 55.6092 67.68 56.0892 66.144C56.5852 64.592 56.9212 63.528 57.0972 62.952C56.4732 63.128 56.0012 63.216 55.6812 63.216C55.3612 63.216 55.0252 63 54.6732 62.568C54.3212 62.12 54.1452 61.696 54.1452 61.296C54.1452 60.784 55.3852 60.352 57.8652 60C58.1692 58.512 58.3212 57.224 58.3212 56.136C58.3212 55.656 58.5612 55.416 59.0412 55.416C59.4572 55.416 59.9852 55.672 60.6252 56.184C61.2812 56.68 61.6092 57.176 61.6092 57.672C61.6092 58.152 61.5052 58.832 61.2972 59.712C62.0652 59.68 62.6492 59.664 63.0492 59.664C64.2492 59.664 64.8492 59.936 64.8492 60.48C64.8492 60.832 64.4972 61.136 63.7932 61.392C63.1052 61.632 62.0412 61.896 60.6012 62.184ZM75.9653 63.816C75.9653 64.6 75.4293 65.304 74.3573 65.928C73.3013 66.552 72.2133 66.864 71.0933 66.864C69.9733 66.864 69.0533 66.784 68.3333 66.624C68.1893 67.056 68.1173 67.488 68.1173 67.92C68.1173 68.352 68.1893 68.664 68.3333 68.856C68.4773 69.032 68.8373 69.12 69.4133 69.12C70.6133 69.12 71.6373 69.008 72.4853 68.784C73.3493 68.56 73.7973 68.448 73.8293 68.448C74.4853 68.448 74.8133 68.664 74.8133 69.096C74.8133 69.72 74.2933 70.312 73.2533 70.872C72.2293 71.432 71.0373 71.712 69.6773 71.712C68.3333 71.712 67.2533 71.288 66.4373 70.44C65.6213 69.592 65.2133 68.592 65.2133 67.44C65.2133 66.272 65.5493 65.056 66.2213 63.792C66.9093 62.528 67.7653 61.472 68.7893 60.624C69.8133 59.76 70.8293 59.328 71.8373 59.328C72.8613 59.328 73.8053 59.832 74.6693 60.84C75.5333 61.832 75.9653 62.824 75.9653 63.816ZM73.1813 63.432C73.1813 63.272 73.0133 63.04 72.6773 62.736C72.3413 62.432 72.0213 62.28 71.7173 62.28C71.4293 62.28 71.0533 62.496 70.5893 62.928C70.1253 63.344 69.6853 63.888 69.2693 64.56C69.4133 64.576 69.6213 64.584 69.8933 64.584C72.0853 64.584 73.1813 64.2 73.1813 63.432ZM85.764 59.328C86.596 59.328 87.324 59.704 87.948 60.456C88.588 61.192 88.908 61.984 88.908 62.832C88.908 64.192 88.684 65.616 88.236 67.104C87.804 68.576 87.324 69.712 86.796 70.512C86.284 71.312 85.756 71.712 85.212 71.712C84.684 71.712 84.42 71.336 84.42 70.584C84.42 70.008 84.684 68.848 85.212 67.104C85.612 65.664 85.812 64.632 85.812 64.008C85.812 63.384 85.732 63.072 85.572 63.072C85.364 63.072 85.156 63.176 84.948 63.384C84.756 63.592 84.596 63.776 84.468 63.936C84.34 64.096 84.188 64.304 84.012 64.56C83.852 64.8 83.708 65.024 83.58 65.232C83.468 65.424 83.316 65.68 83.124 66C82.948 66.304 82.804 66.56 82.692 66.768C82.58 66.96 82.436 67.216 82.26 67.536C80.772 70.32 79.604 71.712 78.756 71.712C78.42 71.712 77.996 71.424 77.484 70.848C76.972 70.256 76.716 69.824 76.716 69.552C76.716 69.376 76.828 69 77.052 68.424C77.292 67.832 77.46 67.384 77.556 67.08C77.668 66.76 77.756 66.424 77.82 66.072C77.9 65.72 77.964 65.344 78.012 64.944C78.06 64.528 78.092 64.208 78.108 63.984C78.14 63.76 78.172 63.408 78.204 62.928C78.348 60.848 78.468 59.696 78.564 59.472C78.676 59.248 78.796 59.136 78.924 59.136C79.532 59.136 80.116 59.392 80.676 59.904C81.236 60.4 81.516 60.856 81.516 61.272C81.516 62.264 81.26 63.688 80.748 65.544C81.788 63.72 82.732 62.232 83.58 61.08C84.444 59.912 85.172 59.328 85.764 59.328ZM25.9 91.76C26.3 91.76 26.788 92.024 27.364 92.552C27.94 93.08 28.228 93.624 28.228 94.184C28.228 95.72 27.436 98.696 25.852 103.112C25.308 104.664 25.036 105.744 25.036 106.352C25.036 106.432 25.052 106.48 25.084 106.496C25.116 106.512 25.412 106.52 25.972 106.52C26.532 106.52 27.3 106.44 28.276 106.28C29.268 106.104 30.068 105.936 30.676 105.776C31.3 105.616 31.668 105.536 31.78 105.536C32.18 105.536 32.38 105.792 32.38 106.304C32.38 107.312 31.612 108.128 30.076 108.752C28.556 109.36 26.788 109.664 24.772 109.664C23.988 109.664 23.268 109.376 22.612 108.8C21.972 108.208 21.652 107.56 21.652 106.856C21.652 106.152 22.244 103.88 23.428 100.04C24.612 96.184 25.204 93.688 25.204 92.552C25.204 92.024 25.436 91.76 25.9 91.76ZM36.7215 94.328C36.7215 93.912 36.9055 93.488 37.2735 93.056C37.6575 92.608 38.0255 92.384 38.3775 92.384C38.7455 92.384 39.1775 92.816 39.6735 93.68C40.1695 94.544 40.4175 95.176 40.4175 95.576C40.4175 95.96 40.2895 96.256 40.0335 96.464C39.7775 96.672 39.5135 96.776 39.2415 96.776C38.7775 96.776 38.2415 96.472 37.6335 95.864C37.0255 95.256 36.7215 94.744 36.7215 94.328ZM37.0815 97.328C37.6415 97.328 38.1375 97.648 38.5695 98.288C39.0175 98.928 39.2415 99.544 39.2415 100.136C39.2415 100.44 38.9615 101.536 38.4015 103.424C37.8575 105.296 37.3135 107.072 36.7695 108.752C36.5775 109.376 36.1855 109.688 35.5935 109.688C35.2415 109.688 34.9295 109.56 34.6575 109.304C34.4015 109.032 34.2735 108.688 34.2735 108.272C34.2735 107.84 34.4735 106.784 34.8735 105.104C35.2895 103.408 35.6015 101.968 35.8095 100.784C36.0335 99.584 36.2335 98.712 36.4095 98.168C36.6015 97.608 36.8255 97.328 37.0815 97.328ZM49.4359 97.328C50.2679 97.328 50.9959 97.704 51.6199 98.456C52.2599 99.192 52.5799 99.984 52.5799 100.832C52.5799 102.192 52.3559 103.616 51.9079 105.104C51.4759 106.576 50.9959 107.712 50.4679 108.512C49.9559 109.312 49.4279 109.712 48.8839 109.712C48.3559 109.712 48.0919 109.336 48.0919 108.584C48.0919 108.008 48.3559 106.848 48.8839 105.104C49.2839 103.664 49.4839 102.632 49.4839 102.008C49.4839 101.384 49.4039 101.072 49.2439 101.072C49.0359 101.072 48.8279 101.176 48.6199 101.384C48.4279 101.592 48.2679 101.776 48.1399 101.936C48.0119 102.096 47.8599 102.304 47.6839 102.56C47.5239 102.8 47.3799 103.024 47.2519 103.232C47.1399 103.424 46.9879 103.68 46.7959 104C46.6199 104.304 46.4759 104.56 46.3639 104.768C46.2519 104.96 46.1079 105.216 45.9319 105.536C44.4439 108.32 43.2759 109.712 42.4279 109.712C42.0919 109.712 41.6679 109.424 41.1559 108.848C40.6439 108.256 40.3879 107.824 40.3879 107.552C40.3879 107.376 40.4999 107 40.7239 106.424C40.9639 105.832 41.1319 105.384 41.2279 105.08C41.3399 104.76 41.4279 104.424 41.4919 104.072C41.5719 103.72 41.6359 103.344 41.6839 102.944C41.7319 102.528 41.7639 102.208 41.7799 101.984C41.8119 101.76 41.8439 101.408 41.8759 100.928C42.0199 98.848 42.1399 97.696 42.2359 97.472C42.3479 97.248 42.4679 97.136 42.5959 97.136C43.2039 97.136 43.7879 97.392 44.3479 97.904C44.9079 98.4 45.1879 98.856 45.1879 99.272C45.1879 100.264 44.9319 101.688 44.4199 103.544C45.4599 101.72 46.4039 100.232 47.2519 99.08C48.1159 97.912 48.8439 97.328 49.4359 97.328ZM56.125 109.712C55.757 109.712 55.293 109.416 54.733 108.824C54.189 108.232 53.917 107.76 53.917 107.408C53.917 107.312 54.181 106.36 54.709 104.552C55.253 102.744 55.789 100.568 56.317 98.024C56.861 95.48 57.133 93.256 57.133 91.352C57.133 90.856 57.357 90.608 57.805 90.608C58.189 90.608 58.693 90.96 59.317 91.664C59.957 92.352 60.277 93 60.277 93.608C60.277 94.488 59.957 96.152 59.317 98.6C58.693 101.048 58.069 102.976 57.445 104.384C57.653 104.112 57.933 103.752 58.285 103.304C58.653 102.84 58.949 102.464 59.173 102.176C59.397 101.888 59.669 101.536 59.989 101.12C60.325 100.704 60.605 100.368 60.829 100.112C61.053 99.84 61.301 99.544 61.573 99.224C61.845 98.888 62.077 98.624 62.269 98.432C62.477 98.224 62.685 98.032 62.893 97.856C63.277 97.504 63.573 97.328 63.781 97.328C64.181 97.328 64.621 97.6 65.101 98.144C65.581 98.672 65.821 99.136 65.821 99.536C65.821 99.696 65.477 100.064 64.789 100.64C64.117 101.216 63.437 101.856 62.749 102.56C62.077 103.264 61.741 103.896 61.741 104.456C61.741 105 61.901 105.536 62.221 106.064C62.557 106.576 62.917 106.968 63.301 107.24C63.685 107.512 64.037 107.792 64.357 108.08C64.693 108.352 64.861 108.584 64.861 108.776C64.861 109.4 64.437 109.712 63.589 109.712C62.581 109.712 61.245 108.864 59.581 107.168L59.005 106.592C57.565 108.672 56.605 109.712 56.125 109.712ZM73.3849 97.352C73.9929 97.352 74.5929 97.712 75.1849 98.432C75.7769 99.152 76.0729 99.8 76.0729 100.376C76.0729 100.76 75.9049 100.952 75.5689 100.952C75.3769 100.952 75.0969 100.88 74.7289 100.736C74.3609 100.576 73.9849 100.496 73.6009 100.496C73.2329 100.496 72.6809 100.624 71.9449 100.88C71.2249 101.136 70.8649 101.472 70.8649 101.888C70.8649 102.048 71.0809 102.28 71.5129 102.584C71.9449 102.888 72.4169 103.2 72.9289 103.52C73.4409 103.84 73.9129 104.288 74.3449 104.864C74.7769 105.424 74.9929 106.04 74.9929 106.712C74.9929 107.368 74.5049 108.032 73.5289 108.704C72.5689 109.376 71.4329 109.712 70.1209 109.712C68.8249 109.712 67.7129 109.416 66.7849 108.824C65.8569 108.232 65.3929 107.624 65.3929 107C65.3929 106.376 65.6489 106.064 66.1609 106.064C66.3689 106.064 66.6169 106.144 66.9049 106.304C67.7049 106.768 68.6969 107 69.8809 107C71.0809 107 71.6809 106.84 71.6809 106.52C71.6809 106.2 71.4489 105.848 70.9849 105.464C70.5369 105.064 70.0409 104.696 69.4969 104.36C68.9689 104.024 68.4729 103.616 68.0089 103.136C67.5609 102.64 67.3369 102.16 67.3369 101.696C67.3369 100.832 68.1209 99.896 69.6889 98.888C71.2569 97.864 72.4889 97.352 73.3849 97.352Z" fill="white"/>
</g>
<defs>
<clipPath id="clip0_1_2">
<rect width="860.131" height="551.741" fill="white"/>
</clipPath>
</defs>
</svg>
